<svg xmlns="http://www.w3.org/2000/svg" xmlns:xlink="http://www.w3.org/1999/xlink" viewBox="0 0 880 210" width="880" height="210" role="img" aria-label="Darrell Wang - Automation Engineer. A scheduled workflow collects data, an AI agent decides, two actions fire, and the loop repeats unattended.">
<style>.t{font-family:ui-monospace, 'SF Mono', 'JetBrains Mono', 'IBM Plex Mono', Menlo, Consolas, monospace;}</style>
<defs><pattern id="grid" width="22" height="22" patternUnits="userSpaceOnUse"><circle cx="1" cy="1" r="1" fill="#E6EDF3" opacity="0.07"/></pattern></defs>
<rect width="880" height="210" rx="14" fill="#0D1117"/>
<rect x="14" y="64" width="852" height="132" fill="url(#grid)"/>
<text class="t" x="28" y="36" fill="#E6EDF3" font-size="21" font-weight="700" letter-spacing="3.5">DARRELL WANG</text>
<text class="t" x="28" y="55" fill="#8B949E" font-size="11.5" letter-spacing="0.6">Automation Engineer · AI agents · Martech · Taipei</text>
<rect x="650" y="21" width="198" height="25" rx="12.5" fill="#161B22" stroke="#30363D"/>
<circle cx="666" cy="33.5" r="3.6" fill="#3FB950"><animate attributeName="opacity" values="1;0.2;1" dur="2.1s" repeatCount="indefinite"/></circle>
<text class="t" x="680" y="37.5" fill="#3FB950" font-size="10.5" letter-spacing="1">RUNNING · UNATTENDED</text>
<rect x="28" y="76" width="118" height="52" rx="9" fill="#161B22" stroke="#30363D"/>
<path d="M37 76 L31 76 Q28 76 28 85 L28 119 Q28 128 31 128 L37 128 Z" fill="#3FB950"/>
<rect x="28" y="76" width="118" height="52" rx="9" fill="none" stroke="#3FB950" stroke-width="1.5" opacity="0"><animate attributeName="opacity" values="0;1;0;0" keyTimes="0;0.0000;0.0978;1" dur="4.6s" repeatCount="indefinite"/></rect>
<text class="t" x="90.0" y="99" fill="#E6EDF3" font-size="11.5" font-weight="600" text-anchor="middle" letter-spacing="1.4">SCHEDULE</text>
<text class="t" x="90.0" y="116" fill="#8B949E" font-size="10" text-anchor="middle">cron · webhook</text>
<rect x="176" y="76" width="118" height="52" rx="9" fill="#161B22" stroke="#30363D"/>
<path d="M185 76 L179 76 Q176 76 176 85 L176 119 Q176 128 179 128 L185 128 Z" fill="#58A6FF"/>
<rect x="176" y="76" width="118" height="52" rx="9" fill="none" stroke="#58A6FF" stroke-width="1.5" opacity="0"><animate attributeName="opacity" values="0;1;0;0" keyTimes="0;0.1565;0.2543;1" dur="4.6s" repeatCount="indefinite"/></rect>
<text class="t" x="238.0" y="99" fill="#E6EDF3" font-size="11.5" font-weight="600" text-anchor="middle" letter-spacing="1.4">COLLECT</text>
<text class="t" x="238.0" y="116" fill="#8B949E" font-size="10" text-anchor="middle">GA4 · Meta · GSC</text>
<rect x="324" y="76" width="118" height="52" rx="9" fill="#161B22" stroke="#30363D"/>
<path d="M333 76 L327 76 Q324 76 324 85 L324 119 Q324 128 327 128 L333 128 Z" fill="#EA4B71"/>
<rect x="324" y="76" width="118" height="52" rx="9" fill="none" stroke="#EA4B71" stroke-width="1.5" opacity="0"><animate attributeName="opacity" values="0;1;0;0" keyTimes="0;0.3196;0.4174;1" dur="4.6s" repeatCount="indefinite"/></rect>
<text class="t" x="386.0" y="99" fill="#E6EDF3" font-size="11.5" font-weight="600" text-anchor="middle" letter-spacing="1.4">TRANSFORM</text>
<text class="t" x="386.0" y="116" fill="#8B949E" font-size="10" text-anchor="middle">n8n · Python</text>
<rect x="472" y="76" width="112" height="52" rx="9" fill="#161B22" stroke="#30363D"/>
<path d="M481 76 L475 76 Q472 76 472 85 L472 119 Q472 128 475 128 L481 128 Z" fill="#E08A3C"/>
<rect x="472" y="76" width="112" height="52" rx="9" fill="none" stroke="#E08A3C" stroke-width="1.5" opacity="0"><animate attributeName="opacity" values="0;1;0;0" keyTimes="0;0.4826;0.5804;1" dur="4.6s" repeatCount="indefinite"/></rect>
<text class="t" x="531.0" y="99" fill="#E6EDF3" font-size="11.5" font-weight="600" text-anchor="middle" letter-spacing="1.4">AI AGENT</text>
<text class="t" x="531.0" y="116" fill="#8B949E" font-size="10" text-anchor="middle">classify · decide</text>
<circle cx="528" cy="102" r="0" fill="none" stroke="#E08A3C" stroke-width="1.2"><animate attributeName="r" values="4;4;44;44" keyTimes="0;0.4826;0.6413;1" dur="4.6s" repeatCount="indefinite"/><animate attributeName="opacity" values="0;0.75;0;0" keyTimes="0;0.4826;0.6413;1" dur="4.6s" repeatCount="indefinite"/></circle>
<rect x="628" y="62" width="220" height="34" rx="8" fill="#161B22" stroke="#30363D"/>
<path d="M636 62 L631 62 Q628 62 628 70 L628 88 Q628 96 631 96 L636 96 Z" fill="#3FB950"/>
<circle cx="648" cy="79" r="3.4" fill="#8B949E"><animate attributeName="fill" values="#8B949E;#8B949E;#3FB950;#3FB950" keyTimes="0;0.7609;0.7739;1" dur="4.6s" repeatCount="indefinite"/></circle>
<text class="t" x="662" y="83" fill="#E6EDF3" font-size="11">LINE digest delivered</text>
<rect x="628" y="62" width="220" height="34" rx="8" fill="none" stroke="#3FB950" stroke-width="1.4" opacity="0"><animate attributeName="opacity" values="0;1;0;0" keyTimes="0;0.7609;0.8587;1" dur="4.6s" repeatCount="indefinite"/></rect>
<rect x="628" y="108" width="220" height="34" rx="8" fill="#161B22" stroke="#30363D"/>
<path d="M636 108 L631 108 Q628 108 628 116 L628 134 Q628 142 631 142 L636 142 Z" fill="#3FB950"/>
<circle cx="648" cy="125" r="3.4" fill="#8B949E"><animate attributeName="fill" values="#8B949E;#8B949E;#3FB950;#3FB950" keyTimes="0;0.7609;0.7739;1" dur="4.6s" repeatCount="indefinite"/></circle>
<text class="t" x="662" y="129" fill="#E6EDF3" font-size="11">Sheets row written</text>
<rect x="628" y="108" width="220" height="34" rx="8" fill="none" stroke="#3FB950" stroke-width="1.4" opacity="0"><animate attributeName="opacity" values="0;1;0;0" keyTimes="0;0.7609;0.8587;1" dur="4.6s" repeatCount="indefinite"/></rect>
<line x1="146" y1="102" x2="176" y2="102" stroke="#30363D" stroke-width="1.5" stroke-dasharray="3 4"/>
<circle r="3.4" cy="102" cx="146" fill="#E08A3C" opacity="0"><animate attributeName="cx" values="146;146;176;176" keyTimes="0;0.0435;0.1565;1" dur="4.6s" calcMode="linear" repeatCount="indefinite"/><animate attributeName="opacity" values="0;1;1;0" keyTimes="0;0.0435;0.1565;1" dur="4.6s" repeatCount="indefinite"/></circle>
<line x1="294" y1="102" x2="324" y2="102" stroke="#30363D" stroke-width="1.5" stroke-dasharray="3 4"/>
<circle r="3.4" cy="102" cx="294" fill="#E08A3C" opacity="0"><animate attributeName="cx" values="294;294;324;324" keyTimes="0;0.2065;0.3196;1" dur="4.6s" calcMode="linear" repeatCount="indefinite"/><animate attributeName="opacity" values="0;1;1;0" keyTimes="0;0.2065;0.3196;1" dur="4.6s" repeatCount="indefinite"/></circle>
<line x1="442" y1="102" x2="472" y2="102" stroke="#30363D" stroke-width="1.5" stroke-dasharray="3 4"/>
<circle r="3.4" cy="102" cx="442" fill="#E08A3C" opacity="0"><animate attributeName="cx" values="442;442;472;472" keyTimes="0;0.3696;0.4826;1" dur="4.6s" calcMode="linear" repeatCount="indefinite"/><animate attributeName="opacity" values="0;1;1;0" keyTimes="0;0.3696;0.4826;1" dur="4.6s" repeatCount="indefinite"/></circle>
<path id="br1" d="M584,102 C606,102 606,79 628,79" fill="none" stroke="#30363D" stroke-width="1.5" stroke-dasharray="3 4"/>
<circle r="3.4" fill="#E08A3C" opacity="0"><animateMotion dur="4.6s" calcMode="linear" keyPoints="0;0;1;1" keyTimes="0;0.6413;0.7609;1" repeatCount="indefinite"><mpath xlink:href="#br1"/></animateMotion><animate attributeName="opacity" values="0;1;1;0" keyTimes="0;0.6413;0.7609;1" dur="4.6s" repeatCount="indefinite"/></circle>
<path id="br2" d="M584,102 C606,102 606,125 628,125" fill="none" stroke="#30363D" stroke-width="1.5" stroke-dasharray="3 4"/>
<circle r="3.4" fill="#E08A3C" opacity="0"><animateMotion dur="4.6s" calcMode="linear" keyPoints="0;0;1;1" keyTimes="0;0.6413;0.7609;1" repeatCount="indefinite"><mpath xlink:href="#br2"/></animateMotion><animate attributeName="opacity" values="0;1;1;0" keyTimes="0;0.6413;0.7609;1" dur="4.6s" repeatCount="indefinite"/></circle>
<path id="loop" d="M738,142 L738,166 Q738,176 728,176 L97,176 Q87,176 87,166 L87,136" fill="none" stroke="#30363D" stroke-width="1.5" stroke-dasharray="3 4"/>
<path d="M87,128 l-5,9 l10,0 Z" fill="#30363D"/>
<circle r="3.4" fill="#3FB950" opacity="0"><animateMotion dur="4.6s" calcMode="linear" keyPoints="0;0;1;1" keyTimes="0;0.8043;0.9674;1" repeatCount="indefinite"><mpath xlink:href="#loop"/></animateMotion><animate attributeName="opacity" values="0;1;1;0" keyTimes="0;0.8043;0.9674;1" dur="4.6s" repeatCount="indefinite"/></circle>
<rect x="286" y="167" width="250" height="18" fill="#0D1117"/>
<text class="t" x="411" y="181" fill="#8B949E" font-size="10.5" text-anchor="middle" letter-spacing="1.4">LOOP · NO HUMAN IN THE LOOP</text>
</svg>
